<svg xmlns="http://www.w3.org/2000/svg" width="54.764" height="40.917" viewBox="0 0 54.764 40.917">
    <g>
        <path fill="#76c8ff" d="M820.769 357.8a11.71 11.71 0 0 0-11.532 9.7 18.307 18.307 0 0 1 5.2 11.865 11.714 11.714 0 1 0 6.334-21.566zm-5.248 6.7h10.5a.33.33 0 0 1 .2.587l-5.248 4.182a.328.328 0 0 1-.41 0l-5.248-4.182a.329.329 0 0 1 .206-.592zm11.437 9.714a.33.33 0 0 1-.329.329h-11.72a.329.329 0 0 1-.329-.329v-6.787a.329.329 0 0 1 .534-.257l5.45 4.343a.328.328 0 0 0 .41 0l5.45-4.343a.329.329 0 0 1 .534.257z" transform="translate(-777.722 -357.799)"/>
        <path fill="#635cff" d="M793.5 383.491l-5.355-5.354-2.828 2.828 8.183 8.183 13.385-13.384-2.828-2.828zm2.6-21.538a18.382 18.382 0 1 0 18.381 18.382 18.4 18.4 0 0 0-18.381-18.382zm0 34.763a16.382 16.382 0 1 1 16.381-16.381 16.4 16.4 0 0 1-16.381 16.381z" transform="translate(-777.722 -357.799)"/>
    </g>
</svg>
