<svg xmlns="http://www.w3.org/2000/svg" width="42" height="42" viewBox="0 0 42 42">
    <g>
        <path fill="#635cff" d="M253.177 356.993v42h42v-42zm40 40h-38v-38h38zM268 363.7a1 1 0 1 0-1-1 1 1 0 0 0 1 1zm-4.23 0a1 1 0 1 0-1-1 1 1 0 0 0 .998 1zm-4.229 0a1 1 0 1 0-1-1 1 1 0 0 0 .998 1zm-.841 29.583h14.908v-2H258.7zm0-8h14.908v-2H258.7zm0 4h14.908v-2H258.7z" transform="translate(-253.177 -356.993)"/>
        <path fill="#76c8ff" d="M279.419 393.279H289.7V383h-10.281zm-20.719-25.97v12.433h31v-12.433zm13.5 8.717v-5l4 2.5z" transform="translate(-253.177 -356.993)"/>
    </g>
</svg>
