<svg xmlns="http://www.w3.org/2000/svg" width="53.746" height="42.355" viewBox="0 0 53.746 42.355">
    <g>
        <path fill="#76c8ff" d="M750.092 357.8a11.717 11.717 0 1 0 11.718 11.717 11.717 11.717 0 0 0-11.718-11.717zm-2.349 19.035a1.333 1.333 0 1 1 1.334-1.333 1.333 1.333 0 0 1-1.334 1.332zm4.753 0a1.333 1.333 0 1 1 1.334-1.333 1.333 1.333 0 0 1-1.33 1.332zm1.978-3.811H746.3l-1.906-8.315h-1.282v-1.943h2.83l.6 2.611h10.028z" transform="translate(-708.064 -357.799)"/>
        <path fill="#635cff" d="M747.063 381.492c-.252-2.116-1.5-3.188-3.71-3.188h-8.481a24.979 24.979 0 0 0 1.336-5.771c.383-4.037-1.091-5.714-2.4-6.409a4.861 4.861 0 0 0-3.9-.374c-1.315.563-1.217 2.042-1.164 2.837.009.137.019.265.019.376 0 3.728-2.714 8.639-6.213 9.384a2.559 2.559 0 0 0-2.075 2.5v16.766a2.548 2.548 0 0 0 2.546 2.546h15.723a3.635 3.635 0 0 0 3.326-5.3 3.6 3.6 0 0 0 1.534-4.86 3.6 3.6 0 0 0 1.925-2.791 3.636 3.636 0 0 0-.374-2.057 3.632 3.632 0 0 0 1.908-3.652zm-2.384 1.524a1.635 1.635 0 0 1-1.22.548h-.153a1 1 0 0 0-.529 1.85 1.627 1.627 0 0 1 .764 1.57 1.713 1.713 0 0 1-1.75 1.444 1.007 1.007 0 0 0-.539 1.857 1.629 1.629 0 0 1 .749 1.569 1.71 1.71 0 0 1-1.748 1.437 1.007 1.007 0 0 0-.539 1.857 1.628 1.628 0 0 1 .749 1.569 1.7 1.7 0 0 1-1.719 1.437h-15.723a.547.547 0 0 1-.546-.546v-16.766a.57.57 0 0 1 .491-.539c4.831-1.029 7.8-7.3 7.8-11.34 0-.15-.011-.323-.024-.509-.016-.254-.052-.782-.044-.867a1.581 1.581 0 0 1 .6-.1 3.56 3.56 0 0 1 1.578.4c1.391.742 1.5 2.833 1.346 4.456a23.87 23.87 0 0 1-1.37 5.694 1.7 1.7 0 0 0 1.6 2.266h8.9c1.33 0 1.606.44 1.724 1.425a1.625 1.625 0 0 1-.397 1.288zm-28.26-3.464h-7.032a1.352 1.352 0 0 0-1.323 1.379v17.681a1.352 1.352 0 0 0 1.323 1.379h7.032a1.351 1.351 0 0 0 1.322-1.379v-17.681a1.351 1.351 0 0 0-1.322-1.379z" transform="translate(-708.064 -357.799)"/>
    </g>
</svg>
