<svg xmlns="http://www.w3.org/2000/svg" width="48.972" height="39.087" viewBox="0 0 48.972 39.087">
    <g>
        <path fill="#76c8ff" d="M966.334 383.093c0-2.942-2.2-3.606-4.744-4.232-2.126-.531-2.942-.873-2.942-1.917 0-.872.835-1.48 2.069-1.48a2.069 2.069 0 0 1 2.353 2.221h2.83c0-2.534-1.331-4.026-3.913-4.365v-2h-2.357v2.021c-2.325.367-3.847 1.86-3.847 3.911 0 2.96 2.315 3.568 4.858 4.213 1.917.493 2.789.721 2.789 1.916 0 1.063-.911 1.727-2.333 1.727-1.727 0-2.619-.854-2.619-2.486h-2.885a4.394 4.394 0 0 0 4.037 4.618v2.118h2.354V387.3c2.629-.307 4.35-1.907 4.35-4.207z" transform="translate(-943.116 -358.658)"/>
        <path fill="#635cff" d="M978.151 358.658l-35.035 12.406 9.448 26.681 35.036-12.407 4.489-16.6zm7.791 25.145l-32.161 11.389-8.112-22.91 32.16-11.388 11.968 8.653zm-4.724-13.75a2.387 2.387 0 1 0 3.046 1.453 2.387 2.387 0 0 0-3.046-1.453z" transform="translate(-943.116 -358.658)"/>
    </g>
</svg>
